<svg version="1.2" xmlns="http://www.w3.org/2000/svg" viewBox="0 0 1500 250" width="1500" height="250"><style>.a{fill:#e2a229}</style><path class="a" d="m50.1 230h-41.3l32.7-209.3h59.1l32.7 209.3h-41.3l-6.2-48h-29.5zm18.1-152.4l-7.1 65.6h19.7l-7-65.6q-0.3-4-0.5-7.2-0.2-3.3-0.4-7-0.1-3.9-0.1-9.3h-3.6v5.1q0 1.2 0 2.4-0.1 1.4-0.1 2.7 0 1.7-0.2 3.7-0.2 1.7-0.2 3.5 0 3.5-0.5 6.1zm134.7 101.2v51.2h-41.4v-209.4h48.4l15.6 56.3q2.2 7.2 4.4 16.2 2.3 8.8 4.4 17.8 2.2 8.8 3.6 15.6 3.1 14.6 5.6 27.1 2.5 12.5 4.9 25.7 1.1 6.3 2 12.3 0.8 6.2 1.7 12h3.5q-1.4-9.3-2.6-16.7-1.2-7.6-2.5-15.5-1.2-7.9-2.6-18.8-1.2-7.8-2.5-17.4-1.2-9.9-2.3-19.4-1-9.7-1.4-17.1-0.5-6.5-0.8-12.6-0.2-6.4-0.2-12.2v-53.3h41.3v209.4h-45.7l-16.2-54.4q-1.8-5.6-4.1-14.1-2.2-8.4-4.9-17.9-2.4-9.7-4.6-19-2.9-12.8-5.9-26.4-3-13.7-5.3-26.9-1.2-6.3-2.3-12.5-1.1-6.2-1.9-11.8h-3.6q1.8 11.5 3.9 24.3 2.1 12.7 4.2 26.9 1.8 13.7 3.6 27.8 1.7 13.9 2.8 27.3 0.3 6.7 0.5 13.2 0.4 6.3 0.4 12.3zm107.8-158.2h41.4l16.5 135q0.3 1.9 0.7 5.2 0.3 3.4 0.5 7.1 0.4 3.5 0.6 6.1 0.3 5 0.5 10.1 0.2 5.1 0.3 10 0 2.4 0 4.7v4.8h3.6q0-4.1 0-6.9 0.1-2.8 0.1-5.6 0.2-2.8 0.4-7 0-4.6 0.3-9.9 0.4-5.3 0.9-9.8 0.2-2.3 0.4-4.6 0.1-2.1 0.5-4.2l16.5-135h41.4l-32.8 209.4h-59.1zm194.2 209.3h-41.4v-209.3h41.4zm98.6 0v-209.4h56.5q21.6 0 36.2 12.7 6.9 6.2 11.8 15.7 5.1 9.5 7.4 20.5 2.5 12 2.5 26.1v59.4q0 14.6-2.5 26.2-2.4 11.7-7.4 20.6-4.9 9.4-11.8 15.5-6.8 6-16.1 9.3-9 3.4-20.1 3.4zm41.3-170.7v132h5.9q25.8 0 25.8-36.3v-59.4q0-36.3-25.8-36.3zm148 170.7h-41.4v-209.4h41.4zm132.1-111.3h97.3v26.2q0 14.1-5.1 27.1-5.1 12.8-14.2 23.7-9.2 10.9-21.5 19-12.3 8.1-26.9 12.5-15 4.6-31 4.6-17 0-32.2-5.1-15.1-5.3-27.4-14.8-10.2-7.9-19.9-20.8-9.7-12.8-14.9-31.3-5-16.5-5-34.4 0-18.5 4.6-34.2 4.8-15.8 13.4-29 9.7-15 22.7-24.3 13.2-9.3 26-13.7 7.7-2.5 16.2-3.9 8.6-1.4 17.8-1.4 14.7 0 27.6 3.5 13 3.6 24.4 10.4 10.4 6.4 19.2 16 9 9.7 14.8 22.4 2.8 6.1 4.7 12.8 2.1 6.7 3.2 14.1h-42.2q-1.1-5.6-4.2-11.8-3-6.3-8.5-12-9.8-9.6-23.9-13.2-7.2-1.7-15.1-1.7-10.1 0-19.4 3.2-9.3 2.9-16.5 8.7-15 12.2-20.6 32.4-2.8 10.2-2.8 22 0 12.3 3 22.5 3.1 10.2 7.7 17.1 4.8 7.6 11.8 13.5 7.2 6 17.1 9.4 9.1 3.1 19.8 3.1 7.8 0 15-1.7 7.2-1.8 13.4-5 5.8-2.9 10.9-7.5 5.2-4.8 8.8-10.8 3.5-5.6 5.6-12.4h-53.7zm170.9 111.3h-41.4v-209.3h41.4zm103.6 0h-41.4v-170.7h-32.5v-38.7h106.4v38.7h-32.5zm76.6 0h-41.4l32.7-209.3h59.1l32.8 209.3h-41.4l-6.1-48h-29.6zm18.1-152.3l-7 65.6h19.7l-7-65.6q-0.4-4.1-0.6-7.3-0.1-3.3-0.3-7-0.2-3.9-0.2-9.3h-3.5v5.1q0 1.2 0 2.4-0.2 1.4-0.2 2.7 0 1.7-0.2 3.7-0.1 1.7-0.1 3.5 0 3.5-0.6 6.2zm177.8 152.3h-84.4v-209.3h41.3v170.6h43.1z"/></svg>