<svg version="1.2" xmlns="http://www.w3.org/2000/svg" viewBox="0 0 1000 913.61" width="1000" height="914"><style>.a{fill:#712380}.b{opacity:.3;fill:#712380}</style><path class="a" d="m992.5 391.2l-6.3-30.4c-0.8-3.7-3.9-5.9-7.7-5.1-3.7 0.8-5.7 4-4.9 7.8l4.9 23.9-10.8 2.2-4.4-21.5c-0.7-3.5-3.7-5.6-7.2-4.8-3.4 0.7-5.4 3.7-4.6 7.2l4.4 21.6-10.2 2.1-4.9-23.8c-0.8-3.8-4-5.9-7.7-5.1-3.7 0.8-5.7 4-5 7.7l6.3 30.2c0.8 3.8 4 5.8 7.9 5l44.9-9.3c3.9-0.8 6.1-3.9 5.3-7.7zm7.5 68c-0.5-10.1-4-17.7-10.7-23-2.4-1.8-5.3-2.9-7.4-2.8-3.5 0.2-6.3 3-6.1 6.4 0 2 1 4 3.1 5.8 4.9 3.4 7.7 7.6 7.9 14 0.5 9.7-6.6 16.8-16.9 17.3-10.4 0.4-18.1-6-18.5-15.8-0.3-6.3 2-10.9 6.6-14.6 2.1-1.9 2.8-4 2.7-5.9-0.1-3.5-3.2-6.1-6.6-5.9-2.3 0.1-5.2 1.4-7.4 3.6-6.3 5.8-8.9 13.6-8.5 23.6 0.8 17.5 14 29.2 32.2 28.5 18.3-0.9 30.3-13.7 29.6-31.2zm-9.8 110.6c0.6-3.9-1.8-6.9-5.7-7.5l-30.5-4.6 35.4-18.5c4.3-2.2 6-4.1 6.5-7.1 0.6-4.3-2.1-7.6-6.8-8.3l-46.1-6.9c-4-0.6-7.1 1.6-7.7 5.5-0.5 3.8 1.8 6.8 5.7 7.4l31.3 4.7-35.7 18.1c-4.8 2.5-6.4 4.1-6.9 7.3-0.6 4.4 2 7.7 6.7 8.4l46.2 6.9c3.9 0.6 7-1.6 7.6-5.4zm-25.5 77l10.3-29.2c1.3-3.6-0.3-7.1-3.8-8.4-3.7-1.3-7.1 0.5-8.3 4.1l-8.2 23-10.4-3.7 7.4-20.7c1.1-3.3-0.2-6.6-3.6-7.8-3.3-1.2-6.6 0.4-7.8 3.8l-7.3 20.7-9.9-3.5 8.1-22.9c1.3-3.6-0.3-7.1-3.9-8.3-3.6-1.3-6.9 0.4-8.2 4l-10.3 29.1c-1.3 3.6 0.4 7 4.1 8.3l43.3 15.4c3.7 1.3 7.2-0.3 8.5-3.9zm-38.8 75.6c1.9-3.4 0.8-7-2.6-9l-12.4-7.2 5.5-9.6 21.9-1.5c2.2-0.2 4-1.3 5.1-3.2 1.7-2.9 1-6.8-1.6-8.3-1.3-0.7-2.9-1.2-5.2-1l-15.9 1.2c0.4-7-2.9-13.5-9.5-17.3-10.1-5.8-21.6-1.8-28 9.2l-9.6 16.6c-1.9 3.4-0.9 7 2.6 9l40.6 23.4c3.4 2 7.1 1.1 9.1-2.3zm-25.7-22.4l-12.6-7.2 6.6-11.3c2.3-4 6.4-5.4 10.2-3.3 3.7 2.2 4.6 6.5 2.3 10.5zm-26 84.8l20.2-23.4c2.5-2.9 2.3-6.7-0.5-9.2-2.9-2.5-6.7-2.1-9.2 0.8l-16 18.4-8.3-7.1 14.3-16.7c2.3-2.6 2.2-6.3-0.5-8.6-2.6-2.3-6.3-2-8.6 0.7l-14.4 16.7-7.9-6.9 15.9-18.4c2.5-2.9 2.3-6.6-0.6-9.1-2.9-2.5-6.7-2.2-9.2 0.7l-20.1 23.4c-2.6 2.9-2.2 6.7 0.8 9.3l34.7 30c3.1 2.6 6.8 2.4 9.4-0.6zm-59.7 51.1c3.1-2.4 3.5-6.1 1.1-9.3l-9.9-12.7 16.9-13.2c3-2.3 3.6-6.1 1.2-9.1-2.3-3-6.1-3.4-9.1-1.1l-17 13.2-7.2-9.2 19.3-15c3.1-2.4 3.6-6.1 1.2-9.1-2.3-3-6.1-3.4-9.1-1.1l-24.4 19.1c-3.1 2.4-3.5 6.1-1 9.3l28.8 36.9c2.4 3.2 6.1 3.7 9.2 1.3zm-67.5 37.2c3.6-1.8 4.6-5.4 2.8-9l-7.2-14.3 19.2-9.7c3.4-1.8 4.6-5.3 2.9-8.7-1.7-3.4-5.3-4.6-8.7-2.8l-19.2 9.6-5.3-10.4 21.8-11c3.4-1.7 4.7-5.3 3-8.7-1.7-3.4-5.4-4.6-8.8-2.8l-27.7 14c-3.5 1.7-4.5 5.3-2.7 8.9l21.1 41.8c1.8 3.6 5.3 4.8 8.8 3.1zm-47.6 16.3c3.8-1.2 5.5-4.6 4.3-8.4l-14.4-45.6c-1.2-3.8-4.5-5.6-8.3-4.4-3.7 1.1-5.4 4.5-4.2 8.3l14.4 45.7c1.2 3.8 4.5 5.6 8.2 4.4zm-87.3 14.8l18.9-2.4c17.1-2.3 27-15.7 24.8-33.1-2.3-17.4-15.3-28-32.4-25.8l-18.9 2.5c-3.9 0.5-6.1 3.5-5.6 7.5l5.9 45.5c0.5 3.9 3.4 6.3 7.3 5.8zm4.8-13.5l-4.3-33.5 12.4-1.6c8.9-1.2 15.8 5.1 17 14.8 1.3 9.8-3.8 17.6-12.7 18.8zm-125 6.9l30.8 3.3c3.8 0.5 6.9-1.9 7.3-5.6 0.4-3.8-2.1-6.8-5.9-7.2l-24.3-2.6 1.2-10.9 21.9 2.3c3.5 0.4 6.4-1.7 6.8-5.3 0.4-3.4-1.9-6.3-5.5-6.7l-21.9-2.3 1.2-10.4 24.1 2.6c3.8 0.4 6.8-1.9 7.2-5.7 0.4-3.8-2-6.7-5.8-7.1l-30.6-3.4c-3.9-0.4-6.8 2-7.2 6l-5 45.6c-0.4 4 1.9 7 5.7 7.4zm-48.6-8.1c3.8 0.9 7-1.1 7.9-5l10.8-46.6c0.9-3.9-1-7.2-4.9-8.1-3.7-0.8-6.9 1.2-7.8 5.1l-4 17.1-24.7-5.7 4-17.1c0.9-3.9-1-7.1-4.9-8-3.8-0.9-6.9 1.1-7.8 5l-10.9 46.7c-0.9 3.8 1 7.1 4.9 8 3.8 0.9 7-1.2 7.9-5.1l4-17.4 24.7 5.7-4 17.4c-0.9 3.9 1 7.2 4.8 8zm-97.6-27.9c3.7 1.2 7-0.5 8.3-4.2l13.4-38.5 12.2 4.3c3.5 1.2 7-0.4 8.2-4 1.3-3.6-0.4-7-4-8.2l-36.6-12.8c-3.6-1.2-7.1 0.4-8.3 4-1.3 3.6 0.5 7 4 8.2l12.2 4.2-13.4 38.5c-1.3 3.7 0.3 7.2 4 8.5zm-101.4-46.4l26 13.3c3.4 1.7 7 0.6 8.7-2.8 1.8-3.4 0.5-7-2.9-8.7l-20.2-10.3 18.5-36.2c1.8-3.6 0.7-7.2-2.8-9-3.5-1.8-7-0.5-8.8 3l-21.3 41.8c-1.8 3.6-0.7 7.2 2.8 8.9zm-66.7-42l25.8 17.2c3.2 2.1 6.9 1.4 9-1.7 2.2-3.2 1.3-6.9-1.9-9l-20.3-13.6 6.1-9.1 18.3 12.2c2.9 1.9 6.5 1.4 8.5-1.6 1.9-2.9 1.2-6.5-1.8-8.5l-18.3-12.2 5.8-8.7 20.2 13.5c3.2 2.1 6.9 1.4 9-1.7 2.1-3.2 1.4-6.9-1.8-9l-25.7-17.1c-3.3-2.2-6.9-1.4-9.1 1.9l-25.5 38.2c-2.2 3.3-1.5 7 1.7 9.2zm-60-51l23 20.7c2.8 2.5 6.7 2.4 9.2-0.4 2.6-2.8 2.3-6.6-0.6-9.2l-18.1-16.3 7.3-8.2 16.4 14.7c2.6 2.3 6.2 2.3 8.6-0.3 2.3-2.6 2.1-6.3-0.5-8.7l-16.4-14.7 7-7.8 18.1 16.3c2.8 2.6 6.6 2.4 9.2-0.4 2.5-2.8 2.2-6.6-0.6-9.2l-22.9-20.6c-2.9-2.6-6.7-2.4-9.4 0.6l-30.7 34.1c-2.6 3-2.5 6.7 0.4 9.4zm-49.6-57.1c2.4 3.1 6.2 3.5 9.3 1l12.6-10 13.4 16.9c2.3 3 6.1 3.5 9.1 1.1 2.9-2.3 3.3-6.1 1-9.1l-13.3-16.9 9.1-7.2 15.2 19.2c2.4 3 6.1 3.5 9.1 1.1 3-2.4 3.4-6.1 1-9.1l-19.2-24.4c-2.4-3-6.2-3.4-9.3-0.9l-36.8 29c-3.1 2.5-3.6 6.2-1.2 9.3zm33.6-396.3c-0.6 1-0.7 1.9-0.2 3.1 0.4 1.3 0.5 2.3-0.1 3.3-0.9 1.6-2.6 1.9-4.8 0.6l-21.2-12.5c-11.4-6.8-21.6-3.3-28.9 9-4.8 8.2-6 16.8-3.3 24.5 1 2.8 2.5 4.7 4.4 5.9 2.6 1.5 5.6 0.6 7.2-2.1 1-1.8 1-3.5 0.4-7.1-1.3-5.2-0.9-10.4 1.8-15.1 2.9-4.9 7-6.6 10.8-4.4 2.6 1.5 3 3.5 1.6 7.8l-4.1 12.6c-3.3 10.4-1.3 18 6.6 22.7 8.7 5.1 18.7 2.1 24.7-8.2 3.6-6 4.3-12.6 1.5-18.5 5.4 0.9 10.1-1.2 13-6.1 2.1-3.5 2.2-7.8 0.7-11.1-0.9-2.4-2.3-4.1-4.2-5.2-2.3-1.4-4.8-1.1-5.9 0.8zm-16.7 15.2c5.7 3.4 7.5 10.6 3.6 17.2-2.7 4.6-7 5.9-10.7 3.7-3.5-2.1-4.2-5.6-2.1-11.9l2-6.2c1-2.7 1.1-4.9 0.8-6.6zm847.7-37.9l-16 28.7-16.6 8.2c-3.6 1.8-4.9 5.3-3.2 8.8 1.8 3.5 5.4 4.7 9 2.9l16.6-8.2 32.5 5c1.1 0.2 2.3 0.1 3.4-0.5 2.9-1.4 4-4.9 2.5-8-1.5-3-4.1-3.5-6.9-3.9l-23.9-3.5 11.8-21.2c1.4-2.4 2.6-4.8 1.1-7.7-1.5-3.3-5-4.5-7.8-3.1-1.2 0.6-2 1.5-2.5 2.5zm-87.3-34.1c2.4 3.2 6.1 3.7 9.3 1.3l24.9-18.3-12.1 38.1c-1.4 4.6-1.2 7.2 0.6 9.6 2.5 3.4 6.7 3.9 10.6 1.1l37.5-27.7c3.2-2.4 3.9-6.1 1.5-9.3-2.3-3.1-6-3.6-9.2-1.2l-25.5 18.8 12.6-38.1c1.6-5.1 1.5-7.4-0.3-10-2.7-3.6-6.9-4.1-10.7-1.2l-37.6 27.7c-3.2 2.4-3.9 6.1-1.6 9.2zm-59.8-56.9c2.5 2.2 5.2 2.6 7.7 1.2l9-4.6 20.5 18.4-3.6 9.5c-1.1 2.6-0.5 5.2 2 7.5 2.5 2.2 6.5 2 8.7-0.4 0.6-0.8 1.5-2.1 2.2-3.9l14.9-41.6c2.6-7.1 2.4-11.7-2.4-16-4.7-4.3-9.4-4-16.1-0.7l-39.8 19.3c-1.7 0.8-2.9 1.9-3.6 2.6-2.2 2.5-1.9 6.5 0.5 8.7zm28.5-9.4l22.3-11.3-8.9 23.3zm-79.4-23.7c3.3 2.1 7 1.2 9.1-2.2l7.3-11.7 10.2 6.4c11.1 6.9 23.2 5.4 29.7-4.9 6.4-10.2 2.5-21.9-8.6-28.8l-15.7-9.9c-3.3-2-7-1.1-9.1 2.3l-24.9 39.7c-2 3.3-1.3 7 2 9.1zm23-24.4l8-12.7 10.8 6.8c4.2 2.6 5.3 6.9 2.9 10.7-2.3 3.7-6.7 4.6-10.8 2zm-108.5-11.8c3.5 1.3 7.1-0.6 8.5-4.2l10.2-27.6 3.1 24.4c0.8 5.9 1.8 8 4.9 9.2 3.3 1.2 5.3 0.2 9.9-3.8l18.3-16.5-10.3 27.7c-1.3 3.6 0.2 7.3 3.7 8.6 3.5 1.3 7-0.4 8.4-4.2l16.1-43.5c1.8-4.7-0.1-8.6-4.3-10.1-3.8-1.4-6.4-0.3-10.2 3l-25.5 22.5-4.7-33.7c-0.8-4.9-1.9-7.5-5.8-8.9-4.1-1.5-8.1 0.2-9.9 4.9l-16.1 43.5c-1.4 3.8 0.2 7.4 3.7 8.7zm-61.6-12.1c17.9 2.8 32.3-7.8 35.1-25.7 2.8-18-7.7-32.5-25.6-35.3-17.9-2.8-32.4 7.8-35.2 25.7-2.8 18 7.7 32.5 25.7 35.3zm-12.4-33.2c1.6-10.3 9.9-16.4 19.9-14.8 9.9 1.5 15.9 9.9 14.3 20.2-1.6 10.3-9.9 16.4-19.8 14.8-10-1.5-16-9.9-14.4-20.2zm-66.5 29.2c10.1-0.3 17.7-3.7 23.1-10.4 1.9-2.3 3-5.2 3-7.3-0.1-3.5-2.9-6.3-6.4-6.2-1.9 0-3.9 0.9-5.8 3-3.4 4.8-7.7 7.6-14.1 7.7-9.7 0.3-16.7-6.8-17-17.2-0.3-10.4 6.3-18 16-18.3 6.4-0.1 10.9 2.2 14.5 6.9 1.9 2.1 4.1 2.8 5.9 2.8 3.5-0.1 6.1-3.1 6-6.6 0-2.3-1.3-5.1-3.4-7.4-5.8-6.3-13.5-9.1-23.5-8.8-17.6 0.5-29.5 13.5-29 31.8 0.5 18.2 13.1 30.5 30.7 30zm-127.4 20.4c3.7-1 5.6-4.2 4.6-8.1l-2.9-11.7 6.2-9.2 23.5 18.1c1.9 1.5 4.7 1.9 6.5 1.4 3.3-0.8 5.5-3.8 4.8-6.6-0.4-1.8-1.4-3-4.1-5.1l-23.7-18.3 12.2-18.1c2-3 2.3-4.9 1.8-7.3-0.7-2.5-3.9-4.3-6.5-3.6-2.3 0.6-3.7 1.8-4.8 3.4l-19.8 29.7-4.8-19.1c-0.9-3.9-4.1-5.9-7.9-5-3.8 1-5.7 4.3-4.8 8.1l11.6 46.5c1 3.8 4.2 5.8 8.1 4.9zm-61.7 21.5l27.2-10.6c3.6-1.4 5.1-4.9 3.7-8.4-1.4-3.6-4.9-5-8.4-3.6l-21.1 8.2-14.9-37.8c-1.5-3.7-4.9-5.3-8.6-3.9-3.6 1.5-5 4.9-3.6 8.7l17.2 43.6c1.5 3.7 4.9 5.3 8.5 3.8zm-37 19.2c3.6-1.8 4.6-5.4 2.8-8.9l-21.8-42.6c-1.8-3.6-5.4-4.8-8.9-3-3.5 1.8-4.5 5.4-2.7 8.9l21.8 42.6c1.8 3.6 5.3 4.8 8.8 3zm-78.4 49.9c3.1-2.2 3.7-6.2 1.5-9.4l-16.7-24.2 21.7 11.5c5.4 2.7 7.6 3.1 10.4 1.2 2.8-2 3.2-4.2 2.6-10.2l-3-24.5 16.7 24.3c2.2 3.2 6.1 4.1 9.2 2 3.1-2.1 3.7-6 1.4-9.3l-26.3-38.2c-2.9-4.1-7.2-4.8-10.8-2.3-3.4 2.3-3.9 5.1-3.4 10.1l3.8 33.8-30.3-15.5c-4.5-2.2-7.2-2.8-10.6-0.4-3.7 2.5-4.6 6.8-1.7 10.9l26.3 38.2c2.3 3.3 6.2 4.1 9.2 2zm-72.8 72.3l21.5-24.8c2.5-2.9 2.3-6.5-0.5-8.9-2.9-2.4-6.5-2.2-9 0.7l-14.8 17.1c-1.7-3-1.1-7.1 0.8-13.7 3.5-11.4 3.2-19.3-4.6-26.1-9.4-8.1-20.1-6-28.4 3.7-5.7 6.5-8.1 15.3-5.7 22.2 1 2.7 2.1 4.9 4 6.5 2.8 2.4 5.9 2.4 8.3-0.4 1.3-1.5 2-3.7 1.3-6.1-2.2-5.1-2.5-10.1 1.2-14.4 3.5-4 8-4.2 10.7-1.8 3.2 2.8 3.7 6.4 1.1 16-4.5 15.9-2.7 24.3 3.9 30 3.9 3.4 7.3 3.4 10.2 0zm-69.1 162l5.7-30.5c0.7-3.7-1.4-6.9-5.1-7.6-3.8-0.7-6.9 1.5-7.6 5.3l-4.4 24-10.8-2 4-21.7c0.6-3.4-1.3-6.5-4.8-7.1-3.4-0.7-6.4 1.4-7.1 4.9l-4 21.6-10.3-1.9 4.5-23.9c0.7-3.7-1.4-6.9-5.2-7.6-3.7-0.7-6.8 1.5-7.5 5.3l-5.7 30.3c-0.7 3.9 1.5 6.9 5.5 7.6l45.1 8.4c3.9 0.8 7-1.3 7.7-5.1zm-1 41.6c-0.2-3.9-3.1-6.4-7.1-6.2l-47.8 2.4c-3.9 0.2-6.5 3-6.3 6.9 0.2 3.9 3 6.4 7 6.2l17.6-0.9 1.2 25.3-17.5 0.9c-4 0.2-6.6 2.9-6.4 6.9 0.2 3.9 3.1 6.3 7.1 6.1l47.7-2.4c4-0.2 6.6-2.9 6.4-6.8-0.2-4-3-6.4-7-6.2l-17.9 0.9-1.3-25.4 17.9-0.9c4-0.2 6.6-3 6.4-6.8zm15.7 91.5c-1.1-3.7-4.5-5.3-8.3-4.1l-38.8 12.3-3.9-12.3c-1.2-3.6-4.5-5.4-8.2-4.2-3.6 1.2-5.2 4.5-4.1 8.1l11.8 37c1.1 3.6 4.5 5.4 8.1 4.3 3.6-1.2 5.3-4.6 4.2-8.2l-3.9-12.2 38.7-12.4c3.8-1.2 5.6-4.6 4.4-8.3zm831.4-434.5c0-8.6 6.2-14.8 14.9-14.8 8.7 0 14.8 6.2 14.8 14.8 0 8.6-6.1 14.8-14.8 14.8-8.7 0-14.9-6.2-14.9-14.8zm14.9 11.6c6.6 0 11.4-4.9 11.4-11.6 0-6.7-4.8-11.6-11.4-11.6-6.7 0-11.5 4.9-11.5 11.6 0 6.7 4.8 11.6 11.5 11.6zm-6.3-17.6c0-1.1 0.8-1.9 1.9-1.9h5.4c3.4 0 5.6 2.2 5.6 5.2 0 2-0.9 3.5-2.4 4.4l1.8 3.2c0.4 0.6 0.5 1 0.5 1.4 0 0.8-0.8 1.6-1.8 1.6-0.5 0-1.1-0.3-1.5-0.9l-2.7-4.5h-3.1v3.4c0 1.2-0.8 2-1.8 2-1.1 0-1.9-0.8-1.9-1.9zm7.2 5c1.1 0 1.8-0.7 1.8-1.7 0-1.1-0.7-1.8-1.8-1.8h-3.5v3.5z"/><path class="b" d="m524.6 98.9c-206.9 0-433.5 150-433.5 354.2 0 231 288.5 360.7 493.7 360.7 193.8 0 324.1-163.1 323.5-343.2 0.1-212.9-170.7-371.7-383.7-371.7z"/><path class="a" d="m822.4 577.7c0 37.9-47.3 50.3-84.5 50.3-35.7 0-93.2-17.5-126-19.7-37.1-2.2-55.3 21.1-99 21.1-34.3 0-68.5-13.8-83.8-42.2-26.2 25.5-70.7 41.5-107.8 41.5-62.6 0-120.2-38.6-120.2-109.3 0-105.6 114.4-123.8 203.2-119.4v-28.4c0-34.3-19.6-51-54.6-51-25.5 0-44.4 8.7-61.2 19.6-12.4 8-24 14.6-39.3 14.6-16 0-32.8-10.9-32.8-33.5 0-12.4 4.4-22.6 13.1-31.3 25.5-25.5 73.6-42.3 118.7-42.3 84.5 0 138.4 45.9 138.4 121.7v154.4c0 26.2 11 34.9 28.4 34.9 13.2 0 28.4-5.8 47.4-17.4 40.8-24.8 137.7-99.8 136.2-166.8 0-33.5-18.2-53.2-53.2-53.2-25.5 0-41.5 9.5-58.2 20.4-12.4 8-23.3 13.8-38.6 13.8-16.1 0-32.8-11.6-32.8-34.2 0-12.4 4.3-22.6 13.1-31.3 25.5-25.5 75-42.3 120.2-42.3 85.9 0 134.7 51.7 134.7 123.9 0 72.8-53.9 131.8-110 176.2 17.5 3.7 35 8 50.3 8 13.8 0 27.7-2.9 37.1-5.1 9.5-2.1 21.9-7.2 29.2-7.2 18.2 0 32 15.3 32 34.2zm-418.1-115.8c-49.5-1.5-120.2 1.4-120.2 52.4 0 27 19 43 45.2 43 57.6 0 76.5-41.5 75-95.4z"/></svg>