<?xml version="1.0" encoding="utf-8"?>
<!-- Generator: Adobe Illustrator 27.0.0, SVG Export Plug-In . SVG Version: 6.00 Build 0)  -->
<svg version="1.1" id="Layer_1" xmlns="http://www.w3.org/2000/svg" xmlns:xlink="http://www.w3.org/1999/xlink" x="0px" y="0px"
	 viewBox="0 0 402.96 130.8" style="enable-background:new 0 0 402.96 130.8;" xml:space="preserve">
<style type="text/css">
	.st0{fill:#009AC7;}
</style>
<path class="st0" d="M71.96,42.94l14.01,35.58H57.77L71.96,42.94z M55.43,1.62L2.07,128.29h36.48l8.98-22.64h48.69l8.98,22.64h37.38
	L89.03,1.62H55.43z"/>
<g>
	<path class="st0" d="M136,65.76V65.4C136,28.75,164.03,0,202.11,0c25.69,0,42.22,10.78,53.36,26.05l-26.23,20.3
		c-7.19-8.8-15.45-14.73-27.49-14.73c-17.61,0-30.01,15.09-30.01,33.42v0.36c0,18.87,12.39,33.6,30.01,33.6
		c13.11,0,20.84-6.11,28.38-15.28l26.23,18.69c-11.86,16.35-27.85,28.39-55.52,28.39C164.92,130.8,136,103.31,136,65.76"/>
</g>
<polygon class="st0" points="364.13,2.52 334.13,51.21 304.12,2.52 267.28,2.52 267.28,128.28 301.42,128.28 301.42,56.24 
	333.41,105.29 334.13,105.29 366.29,56.06 366.29,128.28 400.96,128.28 400.96,2.52 "/>
</svg>
