<svg xmlns="http://www.w3.org/2000/svg" width="180" height="30" fill="none" viewBox="0 0 180 30" aria-hidden="true"><path fill="#000000" d="M24.537 6.737V23.24l-5.478 5.386H.897V1.374H19.06l5.478 5.363Zm-6.123 2.21-2.256-2.21H7.02V23.24h9.138l2.256-2.21V8.946Zm41.202 19.68h-6.123V11.593l-7.135 13.144H43.78l-7.136-13.143v17.033h-5.846V1.374h6.169l8.24 15.191 8.24-15.191h6.17v27.253Zm24.238-5.294H72.667l-1.91 5.294h-6.284L75.337 1.374h6.146l10.865 27.253h-6.56l-1.934-5.294Zm-1.957-5.387L78.261 7.98l-3.637 9.99h7.273v-.024Zm33.1 10.68-5.662-10.104h-6.008v10.105h-6.123V1.374h18.691l4.58 4.488v8.125l-4.465 4.42 5.801 10.22h-6.814Zm-11.67-15.444h9.622l1.381-1.404v-3.73l-1.381-1.311h-9.622v6.445Zm59.616-6.445v5.524h14.11v5.363h-14.11v5.617h16.159v5.386h-22.281V1.374h22.281v5.363h-16.159Zm-12.268 6.56v9.967l-5.156 5.363h-13.834l-5.478-5.363V6.737l5.478-5.363h13.512l4.488 4.419-4.166 4.097-3.177-3.13h-7.757l-2.255 2.21v12.107l2.255 2.21h8.195l2.509-2.51V18.5h-6.629v-5.202h12.015Z"></path></svg>