<svg version="1.2" xmlns="http://www.w3.org/2000/svg" viewBox="0 0 1500 350" width="1500" height="350"><style>.a{fill:#0ea800}</style><path class="a" d="m114.4 25.2h-111.4v313.9h111.4c47.2 0 89.8-16.2 120.2-45.2 29.7-29 46.5-68.2 46.5-112.1v-0.6c0-43.2-16.2-82.4-46.5-111.4-30.4-28.4-73-44.6-120.2-44.6zm0 44.6c34.4 0 64.8 11.5 86.4 32.4 20.3 20.2 31.7 48.6 31.7 79.6v0.7c0 65.5-48.6 111.4-118.1 111.4h-63.5v-224.8h63.5z"/><path class="a" d="m424.2 98.8c-33 0-63.4 12.8-85.7 36.5-22.3 22.9-34.4 53.3-34.4 86.4v0.6c0 68.2 52.6 121.6 119.5 121.6 67.5 0 120.8-54 120.8-122.9v-0.7c0-32.4-12.1-62.8-33.7-85.7-23-23-53.4-35.8-86.5-35.8zm52.7 179.6c-13.5 14.8-32.4 22.9-52.7 22.9-41.1 0-73.5-35.1-73.5-79.6v-0.7c0-45.2 31-79 72.9-79 41.8 0 74.2 35.1 74.2 80.3v0.7c0 21-7.4 40.5-20.9 55.4z"/><path class="a" d="m1407.2 98.8c-27.7 0-50 10.1-68.2 29.7v-25h-45.9v235.6h45.9v-133.6c0-37.2 24.3-62.8 58.7-62.8 34.4 0 54 21.6 54 60.1v136.3h45.9v-144.4c-0.7-58.1-35.8-95.9-90.4-95.9z"/><path class="a" d="m1064.9 100.2c-29.7 0-53.3 5.4-81.7 19.5l-5.4 2.7 14.2 39.9 6.7-3.4c21.6-10.8 41.2-15.5 63.5-15.5 37.8 0 57.4 17.5 58.1 52-17.6-4.8-35.2-7.5-60.1-7.5-29.1 0-54 6.8-70.9 19.6-18.9 14.2-28.4 34.4-28.4 59.4v0.7c0 49.9 43.9 75.6 87.8 75.6 33.7 0 57.4-14.2 71.6-27.7v23h45.2v-141.8c0-29.7-8.1-53.3-25-70.2-17.5-17.6-43.2-26.3-75.6-26.3zm36.5 189c-12.2 9.4-29.1 14.8-47.3 14.8-23.6 0-47.9-12.8-47.9-37.8v-0.6c0-23.7 21.6-37.8 56.7-37.8 24.3 0 42.5 4 57.4 8.1v15.5c0 14.8-6.8 27.7-18.9 37.8z"/><path class="a" d="m1251.9 103.5v235.6h-45.9v-235.6z"/><path class="a" d="m1228.9 73.2c-18.3 0-33-14.8-33-33.1 0-18.3 14.7-33.1 33-33.1 18.3 0 33.1 14.8 33.1 33.1 0 18.3-14.8 33.1-33.1 33.1z"/><path class="a" d="m828.6 88l-78.3 51.3-78.3-51.3-56.7 37.1v-21.6h-43.9v235.6h45.2v-161.3l55.4-36.5 56 36.5v161.3h45.3v-161.3l55.3-36.5 55.4 36.5v161.3h45.9v-184.9z"/><path class="a" d="m114.4 25.2h-111.4v313.9h111.4c47.2 0 89.8-16.2 120.2-45.2 29.7-29 46.5-68.2 46.5-112.1v-0.6c0-43.2-16.2-82.4-46.5-111.4-30.4-28.4-73-44.6-120.2-44.6zm0 44.6c34.4 0 64.8 11.5 86.4 32.4 20.3 20.2 31.7 48.6 31.7 79.6v0.7c0 65.5-48.6 111.4-118.1 111.4h-63.5v-224.8h63.5z"/><path class="a" d="m424.2 98.8c-33 0-63.4 12.8-85.7 36.5-22.3 22.9-34.4 53.3-34.4 86.4v0.6c0 68.2 52.6 121.6 119.5 121.6 67.5 0 120.8-54 120.8-122.9v-0.7c0-32.4-12.1-62.8-33.7-85.7-23-23-53.4-35.8-86.5-35.8zm52.7 179.6c-13.5 14.8-32.4 22.9-52.7 22.9-41.1 0-73.5-35.1-73.5-79.6v-0.7c0-45.2 31-79 72.9-79 41.8 0 74.2 35.1 74.2 80.3v0.7c0 21-7.4 40.5-20.9 55.4z"/><path class="a" d="m1407.2 98.8c-27.7 0-50 10.1-68.2 29.7v-25h-45.9v235.6h45.9v-133.6c0-37.2 24.3-62.8 58.7-62.8 34.4 0 54 21.6 54 60.1v136.3h45.9v-144.4c-0.7-58.1-35.8-95.9-90.4-95.9z"/><path class="a" d="m1064.9 100.2c-29.7 0-53.3 5.4-81.7 19.5l-5.4 2.7 14.2 39.9 6.7-3.4c21.6-10.8 41.2-15.5 63.5-15.5 37.8 0 57.4 17.5 58.1 52-17.6-4.8-35.2-7.5-60.1-7.5-29.1 0-54 6.8-70.9 19.6-18.9 14.2-28.4 34.4-28.4 59.4v0.7c0 49.9 43.9 75.6 87.8 75.6 33.7 0 57.4-14.2 71.6-27.7v23h45.2v-141.8c0-29.7-8.1-53.3-25-70.2-17.5-17.6-43.2-26.3-75.6-26.3zm36.5 189c-12.2 9.4-29.1 14.8-47.3 14.8-23.6 0-47.9-12.8-47.9-37.8v-0.6c0-23.7 21.6-37.8 56.7-37.8 24.3 0 42.5 4 57.4 8.1v15.5c0 14.8-6.8 27.7-18.9 37.8z"/><path class="a" d="m1251.9 103.5v235.6h-45.9v-235.6z"/><path class="a" d="m1228.9 73.2c-18.3 0-33-14.8-33-33.1 0-18.3 14.7-33.1 33-33.1 18.3 0 33.1 14.8 33.1 33.1 0 18.3-14.8 33.1-33.1 33.1z"/><path class="a" d="m828.6 88l-78.3 51.3-78.3-51.3-56.7 37.1v-21.6h-43.9v235.6h45.2v-161.3l55.4-36.5 56 36.5v161.3h45.3v-161.3l55.3-36.5 55.4 36.5v161.3h45.9v-184.9z"/></svg>