<svg xmlns="http://www.w3.org/2000/svg" viewBox="0 0 1199.8 285.7" height="50" width="160"><g><path d="M89.2 279.5v-58h-74v58H-.4V153h15.8v54.3h73.9v-54.3h15.7v126.4H89.2Zm51.5 0V153h82.8v14h-67v40.7h65.7v14h-65.8v43.6h67v14h-82.7Zm114 0V153h15.8v112.3h58.7v14h-74.5Zm103 0V153h15.7v112.3H432v14h-74.5Zm154-128.5c37.3 0 62.7 28 62.7 65.4 0 37.3-25.4 65.4-62.7 65.4-37.4 0-62.8-28-62.8-65.4 0-37.4 25.2-65.4 62.8-65.4Zm0 14c-28.4 0-46.5 21.8-46.5 51.4 0 29.5 18 51.3 46.5 51.3 28.4 0 46.4-22 46.4-51.3 0-29.3-18.2-51.4-46.4-51.4Zm201.6 114.5V174.3l-43 105.2h-6.5L621 174.3v105.2h-15.7V153h22.5l39.2 96.2 39.5-96.2H729v126.4h-15.7ZM822.4 151c37.3 0 62.7 28 62.7 65.4 0 37.3-25.3 65.4-62.7 65.4-37.4 0-62.7-28-62.7-65.4 0-37.4 25.2-65.4 62.7-65.4Zm0 14c-28.4 0-46.4 21.8-46.4 51.4 0 29.5 18 51.3 46.4 51.3s46.4-22 46.4-51.3c0-29.3-18.2-51.4-46.4-51.4ZM916 279.5V153h15.7v112.3h58.8v14H916Zm102.9 0V153h15.7v112.3h58.8v14h-74.5Zm116.3 0V226l-49.8-73h18.4l39.2 58.8 39.3-58.7h18.3l-49.6 73v53.4h-15.7Z"></path><path fill="#090909" d="M513.5 6.2c4.7 1.4 4.6 7.4 3.7 11.4-.4 2.1-1.4 3.4-2.2 5.3-.5 1.3 0 1 .3 2 .5 2.1.9 4.7 1.2 6.8 1.8 10.2 3.2 20.5 4.9 30.7.8 5.2 2 10.3 2.6 15.5.6 4.7.8 9.9 1.6 14.5.3 1.4.8 2.7 1.5 4 .6.4 1.1-.6 1.4-1.1 4-7 7-15.4 9.9-23 2.4-6.2 5.2-12.8 7-19.2l1-4.3c.3-2-.2-4.1 0-6.2.1-3.2 2-11.8 6.8-9 4.4 2.6 3 10.1 1.3 14-.9 2-2.2 2.8-3.6 4.3-.8.9-1 1-1.2 2.3-1.2 10-2 19.7-2.5 29.7-.3 5.5-.6 11.1 0 16.6 0 .4 0 1 .2 1.5l.1.3c4.2-3.8 7-8.9 10.4-13.4 2.6-3.5 5.4-6.7 8.3-9.8l2-2c1.5-1.8 2.7-4.1 4.2-6 1.1-4 .3-8.7 2.5-12.5 2.3-4 7.9-4.2 8.3 1.4v2.9c-.3 5-3.6 6.3-6.5 9.4-1.1 1.2-1 1.8-1.7 3l-3 6.4c-1.9 4-3.5 8.1-5.3 12.1-7.3 16.5-14.8 33-23.4 49l.3 1.5c-.3.3-6.1-1.6-7-1.7a94.2 94.2 0 0 0-33.4-4.3c-8 1-16 3-23.5 6.2 0-1.3-.9-2-1.5-3-4-6-7.3-13.5-10.4-20.1-7.4-15.8-14.2-32-21.5-47.8-3-2-5.3-4.8-6.9-7.9l-1-3.1v-2l.8-2.2c2-3.4 4-5.3 7-1.7 2.4 3 3.6 6.6 3.3 10.4l-.3 3c0 .6.5.5.8.9 5.2 6.6 10.7 12.9 16.2 19.2 2.8 3.3 5.3 6.6 8.5 9.5.4.4 2.7 2.3 3 2.2.2 0 .3-1.1.3-1.3v-7c-.2-11.6-.7-23.4-2.1-35l-.7-4.8c0-.5 0-.7-.3-1-1.3-1.7-3-2.8-4.1-4.6-2.1-3.8-3.4-11.7.8-14.4 4.5-3 6.4 4 6.9 7.1.4 3.3-.3 6 .4 9.2 1.8 8.6 6 18.6 9.3 27 1.5 3.8 3 8 4.6 11.7.7 1.4 1.8 3.8 2.7 5 1.1 1.2 1.8 0 2.3-1 2.8-5.1 4-13.7 5.1-19.6 2.4-13.4 4.7-27 6.6-40.5l.9-7.2c0-.7.2-1.7 0-2.3 0-.6-.6-1.1-.8-1.6a16 16 0 0 1-1.9-9.5c.5-2.7 2.5-5 5-5.8h1-.2Zm-.6 1.8c-2 .3-2.8 4.5-2.6 6.2 0 .4.3 1 .4 1.5.4 1.4 1 2.7 1.5 4.1.1.3.5.2.7 0 .7-.4 2.2-3.7 2.4-4.7.4-1.8.7-7.6-2.4-7.1Zm0 17.8c-.2 0-.4 0-.4.2l-.4 2.7-1.7 8.5c-2.6 14-4.2 28.2-6.9 42-.8 4.7-2 9.2-3.5 13.5-.6 1.7-1.9 5-3.3 6-1.6 1.1-2.5-.3-3.3-1.5-2.5-3.7-4.6-9.2-6.3-13.5-3.7-9.1-6.9-18.4-10-27.8-.3.2-.2.7-.2 1 .1 2.4 1 5.3 1.3 7.9 1 9.1 1.6 18.3 1.8 27.5 0 3-.1 8.6-1.5 11.3-.3.6-.5 1-1.2 1-1.8-.4-6.2-4.7-7.6-6.2-2.4-2.3-5-4.7-7.2-7.1-3.4-3.7-6.5-7.7-9.7-11.6-.6-.8-.1.5 0 .8 2.6 7 5.4 13.8 8.2 20.6 4.7 11.6 9.6 23.6 15.1 34.9 5.5 11.2 3.4 7 3.9 7.1l.7-.4c1-.7 1.8-1.7 2.9-2.4a50.6 50.6 0 0 1 28.4-7.6c10.8.4 20.4 5 29.8 9.8h.5c3.3-7.6 7-15.1 10.3-22.9 5.1-11.7 9.7-23.7 14.8-35.4l1.4-3.3c.2-.4 1-1.3.7-1.7-.2-.3-.6.7-.7.9-.7 1-1.7 1.9-2.5 2.8-4.5 5.6-9 11.4-13.6 16.8a28 28 0 0 1-4.4 4.5c-1 .7-1.3.5-1.8-.6a41.4 41.4 0 0 1-1.6-15.3c.2-8.3.8-16.6 1.9-24.8.2-2 .7-3.8 1-5.7 0-.2.2-1.7 0-1.7-.7 1.5-1.1 3-1.7 4.5-3.1 8.3-6.6 16.5-10.2 24.5-3.5 8-5 12.1-7.4 13.6-.9.6-1.4.4-2.1-.3-2.3-2.1-3.6-8.8-4.2-11.9-1.9-9.4-3.7-18.8-5-28.3-1.2-8.6-2-17.3-3.3-25.9-.4-2.1-.9-4.2-.9-6.4h-.1ZM474.6 47c.3-1.3.6-2.7.7-4l.4-2.2c0-.8-.6-3.4-1-4-1-2.1-4 .4-4.1 1.8a12 12 0 0 0 .8 4.6 7.9 7.9 0 0 0 2.1 3.2c.2.2.9.8 1.1.6Zm75.5 0c.2.2 1-.5 1.2-.7 1.9-2 3-4.7 2.8-7.5-.1-1.6-3.1-4.1-4.1-2-.7 1.5-1 3.2-.8 5 .2 1.7.5 3.5.9 5.2Zm28.4 10.3c-1.2 0-2.3 1.7-2.8 2.7-1 2-.3 3.6 0 5.8.2 1 0 3.1 1.5 1.6a14 14 0 0 0 3.7-7.9c0-1.5-.9-2.3-2.4-2.2ZM445 69c1.4-2.6.7-5.6-.6-8.2-.5-1-2-3.9-3.4-2.4-1 1.3-.6 4.1-.1 5.6.8 2 2.2 3.8 4 5Z"></path><path fill="#ecb8cf" d="M583.1 60.8V60v1Zm0 2v-.9.9Zm-70.2-37c0 2.2.5 4.3.8 6.5 1.3 8.6 2.2 17.2 3.4 25.8 1.3 9.5 3 19 5 28.3.6 3.1 1.9 9.8 4.1 12 .7.6 1.3.8 2.2.2 2.4-1.5 6-10.6 7.4-13.6 3.5-8 7-16.2 10.1-24.5.6-1.5 1-3 1.7-4.5.3 0 0 1.6 0 1.7-.2 2-.7 3.8-1 5.7-1 8.2-1.7 16.6-1.8 24.9-.2 4-.2 11.7 1.5 15.3.6 1 .8 1.2 1.8.5 1.5-1 3.3-3.1 4.4-4.4 4.8-5.5 9.1-11.3 13.7-16.9l2.5-2.8c0-.1.4-1.2.7-.8.2.3-.5 1.2-.7 1.6l-1.4 3.3c-5.1 11.8-9.7 23.7-14.8 35.5-3.4 7.7-7 15.2-10.4 23l-.5-.2c-9.4-4.7-19-9.4-29.7-9.7a50.6 50.6 0 0 0-28.5 7.5c-1 .8-1.9 1.8-2.9 2.5-.2.1-.4.4-.7.4-.4-.1-3.4-6.3-3.8-7.2-5.5-11.2-10.4-23.3-15.1-34.8-2.8-6.9-5.6-13.8-8.2-20.7-.2-.2-.6-1.5 0-.8 3.1 4 6.2 7.9 9.6 11.6 3.4 3.7 4.8 4.8 7.2 7.2 1.4 1.4 5.9 5.8 7.7 6 .7.1.8-.3 1.1-.8 1.4-2.7 1.6-8.3 1.5-11.4-.1-9.2-.7-18.4-1.8-27.5-.3-2.5-1.1-5.5-1.2-8 0-.2-.2-.7.2-.8a544 544 0 0 0 10 27.8c1.7 4.2 3.7 9.7 6.3 13.4.8 1.2 1.7 2.6 3.2 1.5 1.5-1 2.7-4.3 3.4-6 1.6-4.3 2.6-8.9 3.5-13.4 2.7-14 4.3-28 6.8-42l1.7-8.6c.2-.7.2-2 .5-2.7.2-.7.1-.1.3-.1h.2Zm0-17.8c3.1-.5 2.8 5.4 2.4 7.2a14 14 0 0 1-2.4 4.7c-.7.5-.6.2-.7 0l-1.5-4.2c-.4-1.4-.4-1-.4-1.5-.2-1.7.6-5.8 2.6-6.2Zm65.6 49.2c1.5-.1 2.4.7 2.4 2.2 0 2.5-2 6.1-3.7 7.8-1.6 1.6-1.3-.6-1.5-1.5-.3-2.2-1-3.8 0-5.9.5-1 1.7-2.6 2.8-2.7ZM474.6 46.9c-.2.2-1-.4-1.1-.6-1-.8-1.7-2-2.1-3.2-.6-1.4-.9-3-.8-4.6.2-1.4 3.2-3.9 4.1-1.9.4.7 1 3.3 1 4.1a48.3 48.3 0 0 1-1 6.2Zm75.5 0-1-5.3c0-1.7.2-3.4.9-5 1-2 4 .5 4.1 2 .3 2.4-1.1 6-2.8 7.6-.2.2-1 1-1.2.7ZM445 69c-2-1.1-3.3-3-4.1-5-.5-1.4-1-4.3 0-5.5 1.4-1.6 3 1.2 3.5 2.3 1.3 2.6 2 5.6.6 8.3Z"></path></g></svg>