<svg xmlns="http://www.w3.org/2000/svg" xmlns:xlink="http://www.w3.org/1999/xlink" viewBox="0 0 340 115" width="110" style="width: 110px;"><g id="intrax-multi-logo" stroke="none" stroke-width="1" fill="none" fill-rule="evenodd"><path d="M46.53,15.7 L59.91,8.16 L75.08,16.92 L75.08,34.43 L61.73,42 L61.73,24.35 L46.53,15.7 Z M61.74,65.7 L61.68,48.09 L75.08,55.81 L75.08,73.26 L59.91,81.94 L46.53,74.39 L61.74,65.7 Z M39.17,74.4 L25.8,81.93 L10.63,73.18 L10.63,55.67 L23.78,48.17 L23.78,65.75 L39.17,74.4 Z M39.17,15.69 L23.75,24.35 L23.81,41.83 L10.63,34.25 L10.63,16.83 L25.79,8.16 L39.17,15.69 Z M58.11,26.45 L58.11,44.11 L42.86,52.8 L27.44,43.93 L27.38,26.45 L42.85,17.77 L58.11,26.45 Z M42.85,72.32 L27.41,63.64 L27.41,48.08 L42.85,57 L58.05,48.33 L58.1,63.68 L42.85,72.32 Z M78.71,14.84 L59.93,4 L42.85,13.62 L25.78,4 L7,14.74 L7,36.33 L22.05,45 L7,53.57 L7,75.26 L25.78,86.1 L42.85,76.48 L42.85,76.48 L59.92,86.09 L78.71,75.36 L78.71,53.76 L63.71,45.1 L78.71,36.52 L78.71,14.84 Z" id="icon" fill="#00953B" fill-rule="nonzero"></path><g id="intrax" transform="translate(99.830000, 14.790000)" fill="#414042" fill-rule="nonzero"><polygon id="Path" points="14 3.55271368e-15 14 60.6 -1.42108547e-14 60.6 -1.42108547e-14 3.55271368e-15"></polygon><path d="M23.02,60.6 L23.02,31.49 C22.9384417,28.8195027 23.3277176,26.1555015 24.17,23.62 C24.9020531,21.5823825 26.1824177,19.7864117 27.87,18.43 C29.791834,16.991802 32.0196337,16.0164979 34.38,15.58 C37.5487746,14.9656814 40.7726014,14.6808319 44,14.73 C47.2273986,14.6808319 50.4512254,14.9656814 53.62,15.58 C55.994375,16.0106157 58.2364811,16.9861886 60.17,18.43 C61.8575823,19.7864117 63.1379469,21.5823825 63.87,23.62 C64.7258547,26.1530708 65.1286799,28.817133 65.06,31.49 L65.06,60.6 L51.53,60.6 L51.53,32.51 C51.5429022,31.4839772 51.4558243,30.4591375 51.27,29.45 C51.1352521,28.6626851 50.789672,27.9265994 50.27,27.32 C49.6602481,26.6937336 48.8763373,26.2651956 48.02,26.09 C45.4056051,25.57001 42.7143949,25.57001 40.1,26.09 C39.2436627,26.2651956 38.4597519,26.6937336 37.85,27.32 C37.330328,27.9265994 36.9847479,28.6626851 36.85,29.45 C36.6641757,30.4591375 36.5770978,31.4839772 36.59,32.51 L36.59,60.6 L23.02,60.6 Z" id="Path"></path><path d="M86.76,26.73 L86.76,42.81 C86.7413826,44.0219273 86.8283781,45.2331728 87.02,46.43 C87.1315626,47.2481703 87.4790519,48.0161218 88.02,48.64 C88.5839443,49.2115344 89.3101695,49.5955958 90.1,49.74 C91.2619337,49.9703623 92.445856,50.0709789 93.63,50.04 L95.51,50.04 C96.3,50.04 101.43,49.96 101.72,49.96 L99.72,60.6 L98.31,60.6 C97.66,60.6 96.94,60.6 96.14,60.6 C95.34,60.6 94.57,60.6 93.8,60.6 L91.97,60.6 C88.8301691,60.6607316 85.6927196,60.3892216 82.61,59.79 C80.4729672,59.4041713 78.4854816,58.4312036 76.87,56.98 C75.4015979,55.5053359 74.4088862,53.6244085 74.02,51.58 C73.4497676,48.7500944 73.1915579,45.8661938 73.25,42.98 L73.25,5.79 L86.78,3.79 L86.78,16.09 L102.27,16.09 L100.27,26.73 L86.76,26.73 Z" id="Path"></path><path d="M122.17,60.6 L108.65,60.6 L108.65,32.6 C108.574152,29.8841641 108.976965,27.176177 109.84,24.6 C110.541904,22.5677132 111.795289,20.7707336 113.46,19.41 C115.218412,18.0343332 117.272422,17.0860653 119.46,16.64 C122.215433,16.0651899 125.025485,15.7935739 127.84,15.83 L132.65,15.83 C134.21,15.83 136.01,15.89 138.05,16 L136.05,27 C135.54,26.94 134.6,26.9 133.24,26.87 C131.88,26.84 130.55,26.87 129.24,26.87 C127.992353,26.8334355 126.746009,26.9782808 125.54,27.3 C124.714949,27.5188785 123.964889,27.9578538 123.37,28.57 C122.819126,29.206992 122.470929,29.9939177 122.37,30.83 C122.220084,31.9133935 122.149896,33.00633 122.16,34.1 L122.17,60.6 Z" id="Path"></path><path d="M180.58,51.83 C180.611078,53.2372761 180.439315,54.6416929 180.07,56 C179.783458,57.0447291 179.208106,57.9874754 178.41,58.72 C177.547585,59.4475201 176.515871,59.9461821 175.41,60.17 C173.926677,60.4762504 172.41447,60.6204297 170.9,60.6 L155.81,60.6 C153.131542,60.6598214 150.4573,60.357077 147.86,59.7 C145.961754,59.2314954 144.198584,58.3276568 142.71,57.06 C141.420479,55.9272547 140.451423,54.4753951 139.9,52.85 C139.305313,51.0371595 139.018016,49.1376217 139.05,47.23 L139.05,45.45 C139.05,40.7366667 140.466667,37.3166667 143.3,35.19 C146.133333,33.0633333 150.466667,32 156.3,32 C158.602588,31.9446729 160.903229,32.1730577 163.15,32.68 C164.642393,33.0479263 166.085828,33.5917321 167.45,34.3 L167.45,33.36 C167.466598,32.3319143 167.365948,31.3052871 167.15,30.3 C166.97456,29.4756788 166.560751,28.7210857 165.96,28.13 C165.247053,27.4645934 164.36492,27.0079596 163.41,26.81 C161.941836,26.4938303 160.441363,26.3528463 158.94,26.39 C157.94,26.39 144.19,26.5 142.94,26.55 L144.94,16.09 C146.58,16.03 148.66,15.99 151.15,15.96 C153.64,15.93 156.54,15.96 159.83,15.96 C166.923333,15.96 172.156667,17.1933333 175.53,19.66 C178.903333,22.1266667 180.593333,26.2533333 180.6,32.04 L180.58,51.83 Z M152.07,46.47 C151.942379,47.8068938 152.445229,49.1268744 153.43,50.04 C154.34,50.78 155.98,51.15 158.37,51.15 L167.37,51.15 L167.37,46.21 C167.492706,44.7753219 166.976859,43.3594876 165.96,42.34 C165.03,41.52 163.05,41.11 160.05,41.11 L158.86,41.11 C156.193333,41.11 154.39,41.4633333 153.45,42.17 C152.421217,43.1103337 151.901389,44.484166 152.05,45.87 L152.07,46.47 Z" id="Shape"></path><polygon id="Path" points="201.27 16.09 208.51 28.51 216 16.09 230.29 16.09 215.74 37.21 231.82 60.62 216.68 60.62 208 46.74 199.23 60.62 184.76 60.62 200.59 37.62 186.17 16.09"></polygon></g><path d="M245.53,109.05 C244.503028,110.127198 243.078289,110.734701 241.59,110.730139 C240.690622,110.735984 239.800483,110.548407 238.98,110.18 C238.178108,109.816938 237.457213,109.29667 236.86,108.65 C236.242328,107.980545 235.757103,107.200113 235.43,106.35 C235.07307,105.442529 234.893166,104.475118 234.9,103.5 C234.897063,102.564156 235.077106,101.636763 235.43,100.77 C235.765234,99.9372666 236.257509,99.1767857 236.88,98.53 C237.49349,97.8797291 238.231442,97.3594219 239.05,97 C239.904972,96.6161321 240.832843,96.4216885 241.77,96.43 C242.961777,96.3958911 244.140427,96.6862331 245.18,97.27 C246.098264,97.7897532 246.842696,98.5689722 247.32,99.51 L245.32,101.02 C244.988251,100.348161 244.466722,99.7883864 243.82,99.41 C243.185667,99.0404638 242.464116,98.8471296 241.73,98.85 C241.160857,98.8441212 240.598558,98.97441 240.09,99.23 C239.597718,99.4695472 239.161544,99.8103082 238.81,100.23 C238.453023,100.677903 238.178734,101.185846 238,101.73 C237.806658,102.31382 237.708735,102.925 237.71,103.54 C237.706235,104.174012 237.814568,104.803699 238.03,105.4 C238.222726,105.95043 238.517925,106.459393 238.9,106.9 C239.270125,107.320949 239.722826,107.661325 240.23,107.9 C240.743578,108.150439 241.308659,108.277154 241.88,108.27 C243.343101,108.224497 244.705472,107.513855 245.58,106.34 L245.58,105.34 L242.74,105.34 L242.74,103.34 L247.84,103.34 L247.84,110.59 L245.58,110.59 L245.53,109.05 Z M257.09,110.63 L257.09,96.53 L263.33,96.53 C263.953761,96.5244453 264.570177,96.664851 265.13,96.94 C265.664652,97.2027399 266.146086,97.5621201 266.55,98 C266.942607,98.4475289 267.257007,98.9580069 267.48,99.51 C268.035858,100.88292 267.905931,102.438327 267.13,103.7 C266.69613,104.42245 266.045171,104.989415 265.27,105.32 L268.49,110.62 L265.41,110.62 L262.53,105.9 L259.83,105.9 L259.83,110.62 L257.09,110.63 Z M259.83,103.50001 L263.27,103.50001 C263.514897,103.50093 263.755929,103.43895 263.97,103.32 C264.192434,103.20304 264.386893,103.039285 264.54,102.84 C264.703909,102.61794 264.832121,102.371637 264.92,102.11 C265.010004,101.822047 265.053879,101.521666 265.05,101.22 C265.053112,100.907002 265.002372,100.5958 264.9,100.3 C264.796572,100.038313 264.65135,99.7951504 264.47,99.58 C264.298552,99.3790548 264.087485,99.2156479 263.85,99.1 C263.632622,98.9908619 263.393222,98.9327219 263.15,98.93 L259.83,98.93 L259.83,103.50001 Z M283.27,110.73 C282.300168,110.743488 281.339746,110.538415 280.46,110.13 C279.641749,109.739574 278.907925,109.192603 278.3,108.52 C277.078485,107.164386 276.401709,105.40477 276.4,103.58 C276.393881,102.653571 276.57412,101.73537 276.93,100.88 C277.267662,100.036606 277.75937,99.2634364 278.38,98.6 C278.992908,97.9225215 279.738269,97.3779655 280.57,97 C281.436093,96.6047969 282.378024,96.4034421 283.33,96.41 C284.296588,96.3978138 285.252436,96.6136506 286.12,97.04 C286.941822,97.4377079 287.676128,97.9952363 288.28,98.68 C288.876974,99.3575015 289.347744,100.136473 289.67,100.98 C289.996377,101.815152 290.16588,102.703349 290.170001,103.6 C290.17044,104.521685 289.993911,105.434882 289.65,106.29 C289.315425,107.127374 288.830817,107.896646 288.22,108.56 C287.598567,109.220226 286.854789,109.753437 286.03,110.13 C285.164685,110.528647 284.222721,110.733422 283.27,110.73 Z M279.179931,103.58 C279.177014,104.181259 279.271576,104.779021 279.46,105.35 C279.631098,105.898431 279.902344,106.410408 280.26,106.86 C280.614231,107.28103 281.053959,107.621905 281.55,107.86 C282.088088,108.134923 282.685873,108.272345 283.29,108.26 C283.901449,108.270074 284.505951,108.129253 285.05,107.85 C285.551702,107.585523 285.991427,107.217381 286.34,106.77 C286.693908,106.314276 286.964717,105.799737 287.14,105.25 C287.311464,104.692728 287.399089,104.113053 287.400069,103.53 C287.402986,102.928741 287.308424,102.330979 287.12,101.76 C286.931617,101.214975 286.654559,100.704784 286.3,100.25 C285.943302,99.8315461 285.504161,99.4911267 285.01,99.25 C284.476218,98.9840052 283.886307,98.8502463 283.29,98.86 C282.675484,98.8511352 282.068031,98.9918448 281.52,99.27 C281.020261,99.5330647 280.580901,99.8974952 280.23,100.34 C279.885734,100.795133 279.621924,101.305843 279.45,101.85 C279.270966,102.409208 279.179931,102.992832 279.179931,103.58 Z M305.18,108.31 C305.753197,108.331468 306.321056,108.192966 306.82,107.91 C307.249175,107.663864 307.615433,107.321567 307.89,106.91 C308.177941,106.466457 308.375075,105.970221 308.47,105.45 C308.582497,104.890312 308.63944,104.320882 308.64,103.75 L308.64,96.53 L311.36,96.53 L311.36,103.72 C311.365337,104.638229 311.247623,105.553034 311.01,106.44 C310.800957,107.249303 310.43017,108.007885 309.92,108.67 C309.40526,109.314915 308.748069,109.831768 308,110.18 C306.18496,110.932792 304.14504,110.932792 302.33,110.18 C301.579571,109.821878 300.924938,109.290631 300.42,108.63 C299.916208,107.962958 299.552271,107.201072 299.35,106.39 C299.12721,105.527799 299.016299,104.640512 299.01991,103.75 L299.01991,96.53 L301.77,96.53 L301.77,103.72 C301.766339,104.297213 301.819935,104.873366 301.93,105.44 C302.034601,105.957396 302.231037,106.451871 302.51,106.9 C303.08138,107.816271 304.101101,108.354776 305.18,108.31 L305.18,108.31 Z M321.07,110.63 L321.07,96.53 L327.07,96.53 C327.693761,96.5244453 328.310177,96.664851 328.87,96.94 C329.400668,97.1997262 329.876071,97.5596743 330.27,98 C330.669032,98.4446358 330.987165,98.955679 331.21,99.51 C331.425938,100.050869 331.537896,100.627622 331.540099,101.21 C331.547597,102.401833 331.116974,103.554905 330.33,104.45 C329.938617,104.886257 329.466635,105.24279 328.94,105.5 C328.38131,105.767126 327.769254,105.903898 327.15,105.9 L323.82,105.9 L323.82,110.62 L321.07,110.63 Z M323.82,103.5 L327,103.5 C327.495577,103.507113 327.965773,103.281271 328.27,102.89 C328.785684,102.113731 328.911322,101.141889 328.61,100.26 C328.520428,99.993061 328.381332,99.7454023 328.2,99.53 C327.869746,99.1511733 327.392564,98.9326166 326.89,98.93 L323.83,98.93 L323.82,103.5 Z" id="group" fill="#FFFFFF" fill-rule="nonzero" opacity="0"></path><path d="M246,110 L246,95.1986755 L248.993119,95.1986755 L248.993119,107.516556 L256.475917,107.516556 L256.475917,110 L246,110 L246,110 Z M282.715596,110 L279.423165,110 L278.126147,106.622517 L272.139908,106.622517 L270.942661,110 L267.75,110 L273.636468,95.0993377 L276.829128,95.0993377 L282.715596,110 L282.715596,110 Z M277.12844,104.039735 L275.033257,98.4768212 L273.037844,104.039735 L277.12844,104.039735 Z M294.787844,110 L294.787844,95.0993377 L297.780963,95.0993377 L303.966743,105.033113 L303.966743,95.0993377 L306.760321,95.0993377 L306.760321,110 L303.767202,110 L297.681193,100.264901 L297.681193,110 L294.787844,110 Z M320.428899,95 L325.916284,95 C327.213303,95 328.111239,95.0993377 328.809633,95.2980132 C329.707569,95.5960265 330.405963,95.9933775 331.104358,96.6887417 C331.702982,97.384106 332.201835,98.1788079 332.501147,99.0728477 C332.800459,100.066225 333,101.15894 333,102.649007 C333,103.84106 332.800459,104.933775 332.501147,105.827815 C332.102064,106.92053 331.603211,107.81457 330.904817,108.509934 C330.405963,109.006623 329.707569,109.403974 328.809633,109.701987 C328.111239,109.900662 327.213303,110 326.115826,110 L320.428899,110 L320.428899,95 L320.428899,95 Z M323.422018,97.5827815 L323.422018,107.516556 L325.716743,107.516556 C326.514908,107.516556 327.213303,107.516556 327.512615,107.417219 C328.011468,107.317881 328.41055,107.119205 328.709862,106.821192 C329.009174,106.523179 329.308486,106.02649 329.508028,105.331126 C329.707569,104.635762 329.807339,103.741722 329.807339,102.549669 C329.807339,101.357616 329.707569,100.463576 329.508028,99.8675497 C329.308486,99.2715232 329.009174,98.7748344 328.610092,98.3774834 C328.211009,98.0794702 327.811927,97.781457 327.213303,97.6821192 C326.81422,97.5827815 325.916284,97.5827815 324.719037,97.5827815 L323.422018,97.5827815 L323.422018,97.5827815 Z" id="land" fill="#00A79D" fill-rule="nonzero" opacity="0"></path><path d="M186.3,109.57 L186.3,95.51 L192.3,95.51 C192.921086,95.4994873 193.53541,95.6401983 194.09,95.92 C194.614027,96.1896965 195.082269,96.5561468 195.47,97 C195.863857,97.4466048 196.178395,97.9573066 196.4,98.51 C196.619051,99.0468043 196.734418,99.6202492 196.74,100.2 C196.739246,100.791312 196.63081,101.377543 196.42,101.93 C196.217223,102.480059 195.915598,102.988415 195.53,103.43 C195.134131,103.8483 194.662446,104.187641 194.14,104.43 C193.584574,104.695217 192.975437,104.82868 192.36,104.82 L189,104.82 L189,109.54 L186.3,109.57 Z M189,102.460008 L192.17,102.460008 C192.66381,102.461589 193.129964,102.232211 193.43,101.84 C193.790135,101.364426 193.967563,100.775363 193.93,100.18 C193.938332,99.8404926 193.887576,99.5021213 193.78,99.18 C193.680771,98.9184295 193.538845,98.6751281 193.36,98.46 C193.197444,98.265668 192.992074,98.1116407 192.76,98.01 C192.536144,97.9117764 192.294456,97.8607155 192.05,97.86 L189,97.86 L189,102.460008 Z M205.57,109.57 L205.57,95.51 L211.78,95.51 C212.404166,95.5006427 213.021459,95.6412484 213.58,95.92 C214.11717,96.1872876 214.598964,96.5537224 215,97 C215.397498,97.4438974 215.712451,97.9552726 215.93,98.51 C216.153657,99.0454043 216.269208,99.6197589 216.27,100.2 C216.277515,101.076856 216.042158,101.938678 215.59,102.69 C215.154517,103.408727 214.50373,103.972043 213.73,104.3 L216.94,109.59 L213.87,109.59 L211,104.85 L208.3,104.85 L208.3,109.57 L205.57,109.57 Z M208.3,102.460009 L211.72,102.460009 C211.968063,102.460868 212.212312,102.398946 212.43,102.28 C212.64481,102.156101 212.834705,101.993334 212.99,101.8 C213.157585,101.580254 213.286125,101.333321 213.37,101.07 C213.464231,100.782794 213.511505,100.482266 213.510035,100.18 C213.509955,99.8696734 213.455811,99.5617302 213.35,99.27 C213.251194,99.0060641 213.105521,98.7621477 212.92,98.55 C212.749964,98.3516994 212.542729,98.1886288 212.31,98.07 C212.092149,97.9621561 211.853049,97.9040889 211.61,97.9 L208.3,97.9 L208.3,102.460009 Z M231.66,109.67 C230.692628,109.680229 229.735452,109.471701 228.86,109.06 C228.042206,108.673202 227.308323,108.129585 226.7,107.46 C225.497881,106.101228 224.82674,104.354131 224.809977,102.54 C224.807622,101.617163 224.987743,100.702964 225.34,99.85 C225.677909,99.0090376 226.165836,98.2364854 226.78,97.57 C227.407297,96.903168 228.162255,96.3692563 229,96 C229.862993,95.6071899 230.801876,95.4091708 231.75,95.42 C232.712111,95.4092201 233.663643,95.6214324 234.53,96.04 C235.348238,96.4388324 236.079059,96.9962959 236.68,97.68 C237.25626,98.3674357 237.703456,99.1534157 238,100 C238.666913,101.703727 238.666913,103.596273 238,105.3 C237.662972,106.133122 237.178564,106.89869 236.57,107.56 C235.952474,108.217709 235.211792,108.747739 234.39,109.12 C233.530809,109.499632 232.599164,109.687326 231.66,109.67 L231.66,109.67 Z M227.579961,102.54 C227.577743,103.137933 227.672299,103.732288 227.86,104.3 C228.028942,104.846287 228.300453,105.355369 228.66,105.8 C229.014231,106.22103 229.453959,106.561905 229.95,106.8 C231.047145,107.340042 232.332855,107.340042 233.43,106.8 C233.929739,106.536935 234.369099,106.172505 234.72,105.73 C235.07072,105.273764 235.338156,104.759204 235.51,104.21 C235.688731,103.657594 235.779835,103.080601 235.780002,102.5 C235.780464,101.901403 235.68249,101.306803 235.49,100.74 C235.311368,100.192749 235.037124,99.6815035 234.68,99.23 C234.323302,98.8115461 233.884161,98.4711267 233.39,98.23 C232.291913,97.7093943 231.018087,97.7093943 229.92,98.23 C229.419264,98.4915686 228.979615,98.8562391 228.63,99.3 C228.282433,99.7530452 228.01831,100.264359 227.85,100.81 C227.669194,101.368787 227.578064,101.952692 227.579961,102.54 L227.579961,102.54 Z M246.15,106.7 C246.445859,106.878808 246.761254,107.023084 247.09,107.13 C247.571742,107.298592 248.079704,107.379866 248.59,107.37 C249.050904,107.389412 249.509015,107.289523 249.92,107.08 C250.261462,106.878895 250.52556,106.569021 250.67,106.2 C250.855026,105.729392 250.969593,105.234057 251.01,104.73 C251.06,104.14 251.09,103.45 251.09,102.66 L251.09,95.51 L253.82,95.51 L253.82,102.66 C253.82384,103.635914 253.767064,104.611125 253.65,105.58 C253.567273,106.367003 253.325735,107.12904 252.94,107.82 C252.567554,108.448329 252.017921,108.952739 251.36,109.27 C250.48719,109.647534 249.540038,109.821919 248.59,109.78 C247.508035,109.810721 246.442936,109.506906 245.54,108.91 L246.15,106.7 Z M274.47,107.17 L274.47,109.57 L264.71,109.57 L264.71,95.51 L274.29,95.51 L274.29,97.9 L267.44,97.9 L267.44,101.29 L273.36,101.29 L273.36,103.51 L267.44,103.51 L267.44,107.17 L274.47,107.17 Z M282.39,102.44 C282.390259,101.569389 282.546039,100.705825 282.85,99.89 C283.158283,99.0643787 283.619701,98.3043974 284.21,97.65 C284.818221,96.9588962 285.559697,96.397687 286.39,96 C287.307851,95.5773481 288.309736,95.3687646 289.32,95.39 C290.493836,95.3576256 291.653599,95.6518939 292.67,96.24 C293.572491,96.7613063 294.305191,97.5322035 294.78,98.46 L292.68,99.9 C292.513548,99.5318844 292.287137,99.1939569 292.01,98.9 C291.762121,98.6432552 291.475255,98.427262 291.16,98.26 C290.842861,98.1013905 290.506829,97.9837794 290.16,97.91 C289.831199,97.8410222 289.495949,97.8074972 289.16,97.81 C288.537967,97.790087 287.92135,97.9313232 287.37,98.22 C286.875512,98.4868066 286.442782,98.8547979 286.1,99.3 C285.757041,99.749299 285.499441,100.257719 285.34,100.8 C285.171573,101.344256 285.083972,101.910293 285.08,102.48 C285.077908,103.089351 285.179351,103.694628 285.38,104.27 C285.558888,104.823279 285.844243,105.336237 286.22,105.78 C286.577258,106.214927 287.019646,106.57224 287.52,106.83 C288.038245,107.100372 288.615519,107.237819 289.2,107.23 C289.5368,107.227972 289.872282,107.187715 290.2,107.11 C290.550571,107.034425 290.887709,106.906312 291.2,106.73 C291.516736,106.552231 291.806349,106.32997 292.06,106.07 C292.330644,105.778963 292.544334,105.439773 292.69,105.07 L294.93,106.36 C294.692518,106.885281 294.352538,107.357853 293.93,107.75 C293.511645,108.15075 293.036547,108.487699 292.52,108.75 C291.991627,109.030882 291.430763,109.245823 290.85,109.39 C290.280533,109.530769 289.696583,109.604602 289.11,109.61 C288.155474,109.618458 287.212706,109.39905 286.36,108.97 C285.542689,108.565311 284.812336,108.004808 284.21,107.32 C283.606645,106.636029 283.129265,105.850552 282.8,105 C282.5121,104.177859 282.373256,103.310931 282.39,102.44 Z M314.13,97.9 L309.63,97.9 L309.63,109.57 L306.92,109.57 L306.92,97.9 L302.42,97.9 L302.42,95.51 L314.13,95.51 L314.13,97.9 Z M331.17,99.19 C331.016604,99.049675 330.849037,98.9256754 330.67,98.82 C330.386856,98.6389656 330.089166,98.4817587 329.78,98.35 C329.409764,98.1930395 329.028796,98.0627082 328.64,97.96 C328.230807,97.860326 327.811158,97.8099681 327.39,97.81 C326.800653,97.7645872 326.212171,97.9082048 325.71,98.22 C325.341652,98.4936561 325.132099,98.9314728 325.15,99.39 C325.139836,99.6464513 325.213562,99.8992242 325.36,100.11 C325.522616,100.319628 325.726912,100.49328 325.96,100.62 C326.280585,100.780578 326.615347,100.911135 326.96,101.01 C327.37,101.13 327.83,101.26 328.36,101.39 C328.993122,101.554177 329.617295,101.751109 330.23,101.98 C330.747416,102.166216 331.230569,102.436511 331.66,102.78 C332.042716,103.082634 332.350662,103.469277 332.56,103.91 C332.785753,104.426551 332.895006,104.986472 332.88,105.55 C332.895057,106.218661 332.747495,106.880975 332.45,107.48 C332.177763,107.99746 331.782926,108.440364 331.3,108.77 C330.795788,109.112481 330.233203,109.359882 329.64,109.5 C328.984395,109.652257 328.313026,109.726108 327.64,109.72 C326.578878,109.72285 325.523488,109.564373 324.51,109.25 C323.52113,108.949202 322.586194,108.493548 321.74,107.9 L322.95,105.55 C323.144431,105.728055 323.359259,105.882463 323.59,106.01 C323.943135,106.227974 324.310645,106.421752 324.69,106.59 C325.141823,106.7904 325.610265,106.951009 326.09,107.07 C326.609797,107.201594 327.143805,107.268765 327.68,107.27 C329.18,107.27 329.93,106.79 329.93,105.82 C329.939217,105.542004 329.850762,105.269562 329.68,105.05 C329.474951,104.816456 329.222746,104.629007 328.94,104.5 C328.574332,104.318605 328.192717,104.171315 327.8,104.06 L326.29,103.63 C325.692898,103.468558 325.108079,103.264707 324.54,103.02 C324.085806,102.835874 323.666432,102.575456 323.3,102.25 C322.982705,101.975225 322.73002,101.633758 322.56,101.25 C322.381708,100.808863 322.296591,100.335615 322.31,99.86 C322.295908,99.2011579 322.432732,98.5478242 322.71,97.95 C322.963611,97.4102504 323.340384,96.9375715 323.81,96.57 C324.294977,96.1888998 324.848196,95.9038052 325.44,95.73 C326.088533,95.5344018 326.762621,95.4366591 327.44,95.44 C328.370842,95.4314401 329.295612,95.5906496 330.17,95.91 C330.947594,96.1836752 331.689559,96.5496217 332.38,97 L331.17,99.19 Z" id="projects" fill="#BFB800" fill-rule="nonzero" opacity="0"></path><path d="M210.76,95.51 L210.76,109.57 L208.05,109.57 L208.05,103.57 L201.68,103.57 L201.68,109.57 L198.94,109.57 L198.94,95.51 L201.68,95.51 L201.68,101.19 L208.05,101.19 L208.05,95.51 L210.76,95.51 Z M226.82,109.67 C225.852628,109.680229 224.895452,109.471701 224.02,109.06 C223.202206,108.673202 222.468323,108.129585 221.86,107.46 C220.668749,106.096898 220.008436,104.350263 219.999977,102.54 C219.997622,101.617163 220.177743,100.702964 220.53,99.85 C220.867909,99.0090376 221.355836,98.2364854 221.97,97.57 C222.579688,96.9096454 223.313714,96.376117 224.13,96 C224.992993,95.6071899 225.931876,95.4091708 226.88,95.42 C227.842111,95.4092201 228.793643,95.6214324 229.66,96.04 C230.478238,96.4388324 231.209059,96.9962959 231.81,97.68 C232.411181,98.3619178 232.882296,99.1482402 233.2,100 C233.866913,101.703727 233.866913,103.596273 233.2,105.3 C232.862972,106.133122 232.378564,106.89869 231.77,107.56 C231.152474,108.217709 230.411792,108.747739 229.59,109.12 C228.718531,109.505383 227.772597,109.693204 226.82,109.67 L226.82,109.67 Z M222.73997,102.54 C222.742743,103.137536 222.837176,103.731113 223.02,104.3 C223.193065,104.844559 223.464185,105.352908 223.82,105.8 C224.174231,106.22103 224.613959,106.561905 225.11,106.8 C226.207145,107.340042 227.492855,107.340042 228.59,106.8 C229.089739,106.536935 229.529099,106.172505 229.88,105.73 C230.23072,105.273764 230.498156,104.759204 230.67,104.21 C230.848731,103.657594 230.939835,103.080601 230.940002,102.5 C230.940464,101.901403 230.84249,101.306803 230.65,100.74 C230.471368,100.192749 230.197124,99.6815035 229.84,99.23 C229.483302,98.8115461 229.044161,98.4711267 228.55,98.23 C227.451913,97.7093943 226.178087,97.7093943 225.08,98.23 C224.579264,98.4915686 224.139615,98.8562391 223.79,99.3 C223.442433,99.7530452 223.17831,100.264359 223.01,100.81 C222.829194,101.368787 222.738064,101.952692 222.73997,102.54 L222.73997,102.54 Z M248.86,107.25 C249.430049,107.271726 249.994766,107.133145 250.49,106.85 C250.921417,106.606911 251.288322,106.264009 251.56,105.85 C251.83883,105.405413 252.035299,104.914238 252.14,104.4 C252.249132,103.84335 252.302729,103.27724 252.3,102.71 L252.3,95.51 L255.000097,95.51 L255.000097,102.68 C255.003969,103.594854 254.886271,104.506174 254.65,105.39 C254.438674,106.195406 254.068039,106.950278 253.56,107.61 C253.050654,108.253749 252.396138,108.767767 251.65,109.11 C250.773186,109.501726 249.820064,109.693034 248.86,109.67 C247.873841,109.697455 246.894784,109.495482 246,109.08 C245.250229,108.725378 244.595549,108.197521 244.09,107.54 C243.587373,106.877288 243.226551,106.118201 243.03,105.31 C242.808491,104.450956 242.697594,103.56714 242.699962,102.68 L242.699962,95.51 L245.43,95.51 L245.43,102.68 C245.430096,103.254213 245.487041,103.827007 245.6,104.39 C245.700063,104.905614 245.896863,105.397616 246.18,105.84 C246.442967,106.254175 246.803498,106.597537 247.23,106.84 C247.72521,107.124163 248.289278,107.266045 248.86,107.25 L248.86,107.25 Z M273.27,99.19 C273.116604,99.049675 272.949037,98.9256754 272.77,98.82 C272.485671,98.6410091 272.188147,98.4838898 271.88,98.35 C271.509764,98.1930395 271.128796,98.0627082 270.74,97.96 C270.330807,97.860326 269.911158,97.8099681 269.49,97.81 C268.900653,97.7645872 268.312171,97.9082048 267.81,98.22 C267.441652,98.4936561 267.232099,98.9314728 267.25,99.39 C267.239836,99.6464513 267.313562,99.8992242 267.46,100.11 C267.622616,100.319628 267.826912,100.49328 268.06,100.62 C268.380585,100.780578 268.715347,100.911135 269.06,101.01 C269.47,101.13 269.93,101.26 270.46,101.39 C271.093122,101.554177 271.717295,101.751109 272.33,101.98 C272.847416,102.166216 273.330569,102.436511 273.76,102.78 C274.142716,103.082634 274.450662,103.469277 274.66,103.91 C274.882324,104.427327 274.988157,104.987217 274.97,105.55 C274.988162,106.217834 274.844041,106.880106 274.55,107.48 C274.274817,107.995411 273.880554,108.437672 273.4,108.77 C272.895788,109.112481 272.333203,109.359882 271.74,109.5 C271.084395,109.652257 270.413026,109.726108 269.74,109.72 C268.678878,109.72285 267.623488,109.564373 266.61,109.25 C265.620316,108.951277 264.685061,108.495467 263.84,107.9 L265.04,105.55 C265.240361,105.725164 265.458168,105.879305 265.69,106.01 C266.043135,106.227974 266.410645,106.421752 266.79,106.59 C267.241823,106.7904 267.710265,106.951009 268.19,107.07 C268.709664,107.2023 269.24376,107.269481 269.78,107.27 C271.28,107.27 272.03,106.79 272.03,105.82 C272.039217,105.542004 271.950762,105.269562 271.78,105.05 C271.572985,104.818598 271.321262,104.631506 271.04,104.5 C270.674332,104.318605 270.292717,104.171315 269.9,104.06 L268.39,103.63 C267.792898,103.468558 267.208079,103.264707 266.64,103.02 C266.185806,102.835874 265.766432,102.575456 265.4,102.25 C265.082705,101.975225 264.83002,101.633758 264.66,101.25 C264.481708,100.808863 264.396591,100.335615 264.41,99.86 C264.395908,99.2011579 264.532732,98.5478242 264.81,97.95 C265.063611,97.4102504 265.440384,96.9375715 265.91,96.57 C266.394977,96.1888998 266.948196,95.9038052 267.54,95.73 C268.188533,95.5344018 268.862621,95.4366591 269.54,95.44 C270.470842,95.4314401 271.395612,95.5906496 272.27,95.91 C273.047594,96.1836752 273.789559,96.5496217 274.48,97 L273.27,99.19 Z M284.56,109.57 L284.56,95.51 L287.29,95.51 L287.29,109.57 L284.56,109.57 Z M300.08,100.56 L300.08,109.56 L297.35,109.56 L297.35,95.51 L299.47,95.51 L306.79,104.74 L306.79,95.53 L309.52,95.53 L309.52,109.53 L307.3,109.53 L300.08,100.56 Z M329.34,108 C328.321597,109.078805 326.903565,109.69005 325.42,109.69005 C324.523028,109.693607 323.635954,109.502545 322.82,109.13 C322.020572,108.767123 321.300255,108.25067 320.7,107.61 C320.085841,106.941651 319.600973,106.165186 319.27,105.32 C318.91655,104.415325 318.740024,103.451218 318.75,102.48 C318.733135,100.615162 319.451692,98.8187692 320.75,97.48 C321.364572,96.8572627 322.090443,96.3552589 322.89,96 C323.743331,95.6230528 324.667154,95.4321523 325.6,95.44 C326.787009,95.409096 327.96075,95.6956269 329,96.27 C329.910494,96.7933085 330.647565,97.5721005 331.12,98.51 L329.12,100.01 C328.794298,99.3398106 328.275333,98.7825325 327.63,98.41 C326.994871,98.0435059 326.273257,97.8536073 325.54,97.86 C324.974962,97.851842 324.41614,97.9786911 323.91,98.23 C323.420672,98.4697067 322.987799,98.8105515 322.64,99.23 C322.282876,99.6815035 322.008632,100.192749 321.83,100.74 C321.635125,101.319999 321.537146,101.928144 321.54,102.54 C321.537202,103.170673 321.645524,103.796909 321.86,104.39 C322.055148,104.936294 322.350161,105.441546 322.73,105.88 C323.093767,106.30353 323.543808,106.64447 324.05,106.88 C324.563204,107.131504 325.128542,107.258277 325.7,107.25 C327.155039,107.203773 328.509706,106.49699 329.38,105.33 L329.38,104.33 L326.55,104.33 L326.55,102.33 L331.64,102.33 L331.64,109.56 L329.38,109.56 L329.34,108 Z" id="housing" fill="#28A032" fill-rule="nonzero" opacity="0"></path></g></svg>