<svg xmlns="http://www.w3.org/2000/svg" viewBox="0 0 118 38" fill="none" class="h-6 lg:h-9 w-auto text-body">
  <path fill-rule="evenodd" clip-rule="evenodd" d="M52.2728 4.37744H110.526C112.512 4.37744 114.138 5.99073 114.138 7.95881V30.0413C114.138 32.0095 112.511 33.6229 110.526 33.6229H52.2728C50.9917 33.6229 43.3387 33.7106 40.8557 32.0264C47.4813 31.5095 48.6609 28.9111 48.6609 27.098V7.95881C48.6609 5.989 50.2861 4.37744 52.2728 4.37744ZM105.207 19.1466C105.187 18.7769 105.121 18.4173 105.01 18.0676C104.894 17.718 104.723 17.4033 104.491 17.1337C104.26 16.8639 103.973 16.6442 103.62 16.4693C103.272 16.2945 102.829 16.2046 102.3 16.2046C101.796 16.2046 101.363 16.2894 101 16.4543C100.638 16.6192 100.335 16.8389 100.093 17.1087C99.8518 17.3784 99.6702 17.6931 99.5395 18.0527C99.4133 18.4123 99.3176 18.7769 99.2571 19.1466H105.207ZM63.063 19.5411C62.6549 21.0645 62.232 22.573 61.7783 24.0664L60.3782 28.6118H56.9323C56.5644 27.7727 56.1716 26.7736 55.7483 25.6098C55.3254 24.4511 54.8869 23.1873 54.4336 21.8238L53.0483 17.4782L51.6629 12.853H56.4132L56.9475 15.2106L57.552 17.8279L58.212 20.5351C58.4487 21.4442 58.6854 22.3133 58.9221 23.1524L59.6323 20.4502L60.3527 17.733L61.0279 15.1607C61.2646 14.3315 61.466 13.5624 61.6374 12.853H64.8162L65.3504 15.1657L65.9849 17.753L66.6749 20.4602C66.9219 21.3792 67.1788 22.2783 67.4459 23.1524L68.1663 20.5351C68.4129 19.6261 68.6398 18.727 68.8465 17.8279L69.451 15.2106L69.9848 12.853H74.66L73.2898 17.4782L71.8991 21.8238C71.4507 23.1874 71.0077 24.4511 70.5741 25.6098C70.141 26.7736 69.7432 27.7727 69.3754 28.6118H65.8641L64.3879 24.0765C63.9042 22.583 63.4662 21.0695 63.063 19.5411ZM80.7169 28.6118H76.2131V12.853H80.7169V28.6118ZM81.1299 8.46861C81.1299 9.28775 80.8632 9.93209 80.3343 10.4016C79.8049 10.8761 79.1753 11.1109 78.45 11.1109C77.7144 11.1109 77.0848 10.8761 76.5456 10.4016C76.0118 9.93209 75.7446 9.28775 75.7446 8.46861C75.7446 7.64947 76.0118 7.01016 76.5456 6.54063C77.0848 6.07609 77.7144 5.84137 78.45 5.84137C79.1753 5.84137 79.8049 6.07609 80.3343 6.54063C80.8632 7.01016 81.1299 7.64947 81.1299 8.46861ZM93.4508 16.779C93.0481 16.6791 92.5693 16.5742 92.0252 16.4643C91.4811 16.3494 90.8967 16.2945 90.2774 16.2945C89.9901 16.2945 89.6527 16.3194 89.2594 16.3744C88.8665 16.4294 88.5694 16.4843 88.373 16.5442V28.6118H83.8693V13.6822C84.6751 13.3975 85.6273 13.1377 86.7254 12.888C87.824 12.6433 89.0482 12.5183 90.3929 12.5183C90.6399 12.5183 90.9321 12.5334 91.2748 12.5634C91.6122 12.5934 91.9545 12.6333 92.2973 12.6832C92.6449 12.7382 92.9877 12.7982 93.3251 12.868C93.6625 12.933 93.9547 13.0179 94.2017 13.1127L93.4508 16.779ZM94.6277 20.8597C94.6277 19.4611 94.8442 18.2375 95.2725 17.1836C95.7056 16.1297 96.2797 15.2555 96.9849 14.5563C97.6955 13.862 98.5063 13.3325 99.4236 12.9679C100.335 12.6083 101.277 12.4285 102.24 12.4285C104.497 12.4285 106.28 13.1127 107.589 14.4863C108.904 15.8549 109.559 17.8678 109.559 20.5201C109.559 20.7848 109.549 21.0695 109.534 21.3792C109.514 21.6839 109.494 21.9587 109.474 22.2034H99.2571C99.3578 23.1374 99.7861 23.8816 100.552 24.4311C101.312 24.9855 102.34 25.2602 103.63 25.2602C104.456 25.2602 105.267 25.1853 106.063 25.0305C106.859 24.8757 107.509 24.6858 108.013 24.4561L108.617 28.0573C108.37 28.1722 108.048 28.2871 107.65 28.407C107.252 28.5318 106.809 28.6317 106.315 28.7217C105.821 28.8065 105.292 28.8815 104.728 28.9414C104.164 29.0064 103.6 29.0364 103.036 29.0364C101.61 29.0364 100.366 28.8265 99.3023 28.407C98.2396 27.9874 97.363 27.413 96.6677 26.6788C95.9777 25.9495 95.464 25.0854 95.1261 24.0914C94.7937 23.0975 94.6277 22.0185 94.6277 20.8597Z" fill="currentColor"></path>
  <path fill-rule="evenodd" clip-rule="evenodd" d="M42.0696 19.2022C41.9949 18.111 41.7318 16.9706 41.0427 16.109C40.3518 15.2458 39.4067 14.9168 38.3118 14.9168C37.7243 14.9168 37.1461 15.0238 36.6208 15.2924C36.1138 15.5518 35.6708 15.8961 35.2968 16.3236C34.9061 16.7697 34.6166 17.2778 34.4103 17.8312C34.2452 18.2744 34.1365 18.7346 34.0774 19.2022H42.0696ZM33.9973 21.7048C34.0886 23.0032 34.4144 24.361 35.2824 25.3584C36.2431 26.4625 37.7833 26.7343 39.1834 26.7343C39.9414 26.7343 40.8489 26.6913 41.5747 26.4563C41.9904 26.3216 42.4696 26.1642 42.8585 25.9644L43.3744 25.6993L43.9279 28.2673L43.6371 28.4242C43.1538 28.6847 42.4898 28.8806 41.9631 29.0343C41.0512 29.3001 40.0703 29.3867 39.123 29.3867C37.8845 29.3867 36.6025 29.2279 35.4516 28.7537C34.4627 28.3463 33.5915 27.7583 32.8925 26.9507C32.2042 26.1557 31.728 25.2333 31.4418 24.2264C31.1314 23.1339 31.0071 21.9935 31.0071 20.8604C31.0071 19.604 31.1702 18.3254 31.6258 17.1468C32.0063 16.1628 32.5311 15.2389 33.2563 14.463C33.9132 13.7598 34.6891 13.2076 35.5858 12.8461C36.4418 12.5008 37.3426 12.3242 38.2666 12.3242C40.1679 12.3242 41.8557 12.9121 43.1404 14.3279C44.5906 15.927 44.9414 18.2785 44.9414 20.351C44.9414 20.5168 44.9361 20.6829 44.9253 20.8484C44.9155 21.0038 44.9007 21.1587 44.8833 21.3135L44.8399 21.7048H33.9973Z" fill="currentColor"></path>
  <path fill-rule="evenodd" clip-rule="evenodd" d="M23.6777 25.4494C23.9719 24.7615 24.2652 24.0732 24.56 23.3855C25.0388 22.2686 25.4738 21.1333 25.8682 19.9844C26.2739 18.8027 26.6525 17.6116 26.9947 16.4103C27.3148 15.2868 27.6117 14.1556 27.8704 13.0166L27.9484 12.6736H30.8381L30.6975 13.2217C30.3335 14.6398 29.9288 16.0478 29.4812 17.4422C29.0423 18.8094 28.5689 20.1652 28.0692 21.5115C27.5901 22.803 27.0767 24.0829 26.5117 25.3399L24.8427 29.0519H22.4018L22.2811 28.8023C21.729 27.66 21.2066 26.5031 20.7019 25.3396C20.1547 24.078 19.6449 22.8004 19.1667 21.5116C18.6677 20.1669 18.1954 18.8126 17.755 17.448C17.3045 16.0522 16.9004 14.6417 16.5384 13.2209L16.3989 12.6736H19.4019L19.481 13.0147C19.7448 14.1521 20.047 15.2814 20.3762 16.4018C20.7291 17.6028 21.1115 18.7952 21.5188 19.9791C21.9154 21.132 22.3453 22.2732 22.8007 23.4045C23.0774 24.0918 23.3679 24.7752 23.6777 25.4494Z" fill="currentColor"></path>
  <path fill-rule="evenodd" clip-rule="evenodd" d="M14.473 8.62381C14.473 9.15989 14.3078 9.65308 13.9142 10.0292C13.5468 10.3804 13.0941 10.5569 12.5838 10.5569C12.0729 10.5569 11.617 10.3801 11.2461 10.0319C10.8468 9.65696 10.6794 9.16323 10.6794 8.62381C10.6794 8.08215 10.8467 7.59119 11.2417 7.20991C11.6108 6.85366 12.0694 6.67578 12.5838 6.67578C13.0977 6.67578 13.5531 6.85357 13.9186 7.21276C14.3078 7.59507 14.473 8.08531 14.473 8.62381Z" fill="currentColor"></path>
  <path fill-rule="evenodd" clip-rule="evenodd" d="M14.0583 29.0518H11.2068V12.6736H14.0583V29.0518Z" fill="currentColor"></path>
  <path fill-rule="evenodd" clip-rule="evenodd" d="M8.0535 29.3161C7.43479 29.2975 6.79715 29.2236 6.20247 29.0482C5.67285 28.8921 5.18972 28.6352 4.78852 28.2557C4.38482 27.8737 4.10632 27.4049 3.92093 26.8856C3.69863 26.2623 3.63867 25.5528 3.63867 24.8958V5.34276L6.49019 4.83545V24.8259C6.49019 25.1489 6.50948 25.5302 6.60993 25.84C6.66909 26.0225 6.75961 26.2085 6.89994 26.3438C7.04545 26.4839 7.22708 26.5665 7.42065 26.6202C7.74426 26.71 8.08268 26.7692 8.41479 26.8186L8.86288 26.8853L8.43846 29.3277L8.0535 29.3161Z" fill="currentColor"></path>
</svg>